<svg xmlns="http://www.w3.org/2000/svg" width="112.934" height="60.549" viewBox="0 0 112.934 60.549"><g transform="translate(-337.944 -849.752)"><g transform="translate(376.411 849.785)"><path d="M404.266,849.8l-9.18,9.18h9.18Z" transform="translate(-395.087 -849.801)" fill="#f7b9bf"/></g><g transform="translate(397.542 862.573)"><path d="M438.27,868.8H426.477v4.916h6.876Z" transform="translate(-426.477 -868.797)" fill="#f7b9bf"/></g><g transform="translate(397.542 853.736)"><path d="M438.706,855.67H426.477v5.009H433.7Z" transform="translate(-426.477 -855.67)" fill="#f7b9bf"/></g><g transform="translate(441.203 879.863)"><path d="M496.189,900.116c.477.057.951.123,1.417.2l3.406-3.406a6.24,6.24,0,0,0-5.165-2.429c-3.049,0-4.51,1.278-4.51,2.9C491.336,899.274,493.576,899.8,496.189,900.116Z" transform="translate(-491.336 -894.482)" fill="#f7b9bf"/></g><g transform="translate(421.379 881.014)"><path d="M474.116,896.192H461.888V901.2h7.219Z" transform="translate(-461.888 -896.192)" fill="#f7b9bf"/></g><g transform="translate(374.135 880.331)"><path d="M398.868,910.395c5.132,0,7.063-3.861,7.125-7.439.061-3.671-1.993-7.778-7.125-7.778s-7.252,4.137-7.159,7.809C391.8,906.567,393.732,910.395,398.868,910.395Z" transform="translate(-391.706 -895.178)" fill="#f7b9bf"/></g><g transform="translate(399.282 880.921)"><path d="M433.546,896.054h-4.483V910h4.483c4.946,0,6.907-3.611,6.813-7.159C440.267,899.445,438.276,896.054,433.546,896.054Z" transform="translate(-429.063 -896.054)" fill="#f7b9bf"/></g><g transform="translate(337.944 849.752)"><path d="M438.964,910.3l11.914-11.915a12.836,12.836,0,0,1-5.2.99c-4.45,0-7.872-1.37-9.492-5.354l3.424-1.772c.965,2.394,3.485,3.452,6.131,3.452,2.583,0,5.01-.9,5.01-3.266,0-2.053-2.147-2.9-5.042-3.2-4.45-.529-8.557-1.714-8.557-6.6,0-.213.011-.422.03-.622l-4.014,4.014v3.828H421.379v4.915h12.228v4.045H417.3V877.033l-4.464,4.464a11.805,11.805,0,0,1,1.818,6.24c.093,5.509-3.268,11.077-10.891,11.077h-8.56V877.033h8.56c.167,0,.335,0,.5.005l5.5-5.5H393.465V849.752l-3.8,3.8v18.017H385.59v-8.807h-10.7v8.807h-4.107V849.785l-3.548,3.545-3.268,1.681a6.239,6.239,0,0,0-5.165-2.427c-3.049,0-4.514,1.275-4.514,2.9,0,1.9,2.243,2.427,4.856,2.736.94.118,1.867.26,2.745.461,3.37.762,6.032,2.357,6.032,6.479,0,4.856-4.3,6.94-9.149,6.94-4.45,0-7.875-1.369-9.492-5.352l3.424-1.774c.963,2.4,3.485,3.455,6.128,3.455,2.583,0,5.012-.9,5.012-3.268,0-2.054-2.147-2.893-5.042-3.2-4.45-.529-8.557-1.711-8.557-6.6a5.806,5.806,0,0,1,.328-1.955l-12.624,12.624V910.3ZM381.3,876.6c7.5,0,11.233,5.755,11.17,11.449-.061,5.635-3.515,11.266-11.17,11.266s-11.2-5.508-11.2-11.233S373.765,876.6,381.3,876.6Zm-20.819,0a11.228,11.228,0,0,1,8,3.328l-2.736,2.646a7.478,7.478,0,0,0-5.259-2.054c-5.259,0-7.531,3.921-7.5,7.562.033,3.608,2.116,7.373,7.5,7.373a8.017,8.017,0,0,0,5.476-2.207l2.8,2.829a11.486,11.486,0,0,1-8.278,3.238c-8.091,0-11.515-5.571-11.546-11.233C348.9,882.385,352.6,876.6,360.478,876.6Z" transform="translate(-337.944 -849.752)" fill="#f7b9bf"/></g></g></svg>